<svg width="32" height="25" viewBox="0 0 32 25" fill="none" xmlns="http://www.w3.org/2000/svg">
<path d="M11.2542 10.9438C12.4489 11.4985 13.3662 12.3305 14.0062 13.4398C14.6889 14.5065 15.0302 15.7651 15.0302 17.2158C15.0302 19.3491 14.3475 21.0771 12.9822 22.3998C11.6169 23.7225 9.86754 24.3838 7.73421 24.3838C5.60087 24.3838 3.85154 23.7225 2.48621 22.3998C1.12087 21.0771 0.438205 19.3491 0.438205 17.2158C0.438205 16.2345 0.566205 15.2531 0.822205 14.2718C1.07821 13.2905 1.65421 11.8398 2.55021 9.91982L6.64621 0.511814H14.2622L11.2542 10.9438ZM28.0222 10.9438C29.2169 11.4985 30.1342 12.3305 30.7742 13.4398C31.4569 14.5065 31.7982 15.7651 31.7982 17.2158C31.7982 19.3491 31.1155 21.0771 29.7502 22.3998C28.3849 23.7225 26.6355 24.3838 24.5022 24.3838C22.3689 24.3838 20.6195 23.7225 19.2542 22.3998C17.8889 21.0771 17.2062 19.3491 17.2062 17.2158C17.2062 16.2345 17.3342 15.2531 17.5902 14.2718C17.8462 13.2905 18.4222 11.8398 19.3182 9.91982L23.4142 0.511814H31.0302L28.0222 10.9438Z" fill="#9D00A1"/>
</svg>
